<?xml version="1.0" encoding="UTF-8"?>
<svg width="900" height="540" version="1.1" xmlns="http://www.w3.org/2000/svg" xmlns:xlink="http://www.w3.org/1999/xlink">
 <rect width="900" height="540" fill="#fff"/>
 <path d="m435.75 145.5v58.875h-63.375v28.125h63.375v126.38h28.125v-126.38h63.375v-28.125h-63.375v-58.875z"/>
 <rect width="257.5" height="540" fill="#307ab1"/>
 <rect x="642.5" width="257.5" height="540" fill="#ce2633"/>
 <path d="m449.81 385.88c-2.1746 0-3.9375 1.7629-3.9375 3.9375v21.008c-9.5636 0.8625-18.269 4.689-25.193 10.559l-14.832-14.832c-1.5379-1.5379-4.0305-1.5379-5.5684 0-1.5375 1.5375-1.5375 4.0305 0 5.5684l14.852 14.852c-5.8082 6.9678-9.5574 15.705-10.342 25.283h-20.979c-2.1746 0-3.9375 1.7629-3.9375 3.9375s1.7629 3.9375 3.9375 3.9375h21.008c0.8625 9.5636 4.689 18.269 10.559 25.193l-14.832 14.832c-1.5379 1.5379-1.5379 4.0305 0 5.5684 1.5375 1.5375 4.0305 1.5375 5.5684 0l14.852-14.852c6.877 5.7325 15.477 9.4619 24.908 10.312v21.008c0 2.1746 1.7629 3.9375 3.9375 3.9375s3.9375-1.7629 3.9375-3.9375v-20.979c9.578-0.78437 18.315-4.5336 25.283-10.342l14.852 14.852c1.5379 1.5375 4.0308 1.5375 5.5684 0 1.5379-1.5379 1.5379-4.0305 0-5.5684l-14.832-14.832c5.8696-6.9243 9.6961-15.63 10.559-25.193h21.008c2.1746 0 3.9375-1.7629 3.9375-3.9375s-1.7629-3.9375-3.9375-3.9375h-20.979c-0.78437-9.578-4.5336-18.315-10.342-25.283l14.852-14.852c1.5375-1.5379 1.5375-4.0308 0-5.5684-1.5379-1.5379-4.0305-1.5379-5.5684 0l-14.832 14.832c-7.0145-5.946-15.858-9.7927-25.568-10.588v-20.979c0-2.1746-1.7629-3.9375-3.9375-3.9375z" fill="#f0df0d"/>
 <path d="m533.34 155.91c4.8701-10.195 7.5994-21.609 7.5994-33.66 0-43.182-35.006-78.188-78.188-78.188-13.173 0-25.583 3.2629-36.473 9.0169 13.578-14.872 33.123-24.204 54.848-24.204 41.007 0 74.25 33.243 74.25 74.25 0 20.649-8.4319 39.327-22.037 52.785z" fill="#f0df0d"/>
 <g id="b" transform="translate(0 .00125)">
  <path id="a" d="m128.75 30.937 13.351 40.762 43.461-0.0825-35.21 25.11 13.51 40.711-35.112-25.243-35.112 25.243 13.51-40.711-35.21-25.11 43.461 0.0825z" fill="#f0df0d"/>
  <use transform="translate(0 371.62)" xlink:href="#a"/>
 </g>
 <use transform="translate(642.5)" xlink:href="#b"/>
</svg>
